<?xml version="1.0" standalone="no"?>
<!DOCTYPE svg PUBLIC "-//W3C//DTD SVG 20010904//EN"
 "http://www.w3.org/TR/2001/REC-SVG-20010904/DTD/svg10.dtd">
<svg version="1.0" xmlns="http://www.w3.org/2000/svg"
 width="499.000000pt" height="131.000000pt" viewBox="0 0 499.000000 131.000000"
 preserveAspectRatio="xMidYMid meet">

<g transform="translate(0.000000,131.000000) scale(0.100000,-0.100000)"
fill="#000000" stroke="none">
<path d="M258 1286 c-101 -36 -172 -100 -217 -196 -22 -47 -26 -69 -26 -150 0
-82 4 -103 26 -151 36 -76 86 -129 161 -170 61 -33 67 -34 173 -34 101 0 114
2 160 27 69 38 85 52 85 75 0 20 -68 93 -87 93 -6 0 -32 -10 -58 -21 -61 -27
-129 -27 -182 -1 -190 98 -125 391 87 392 40 0 69 -7 108 -27 l53 -27 44 44
c25 24 45 50 45 57 0 16 -80 70 -131 88 -51 18 -191 19 -241 1z"/>
<path d="M755 1287 c-3 -6 -4 -167 -3 -357 l3 -345 73 -3 c53 -2 72 0 73 10 0
7 1 72 2 143 l2 130 147 3 147 3 3 -143 3 -143 75 0 75 0 0 355 0 355 -75 0
-75 0 -3 -138 -3 -138 -147 3 -147 3 -3 138 -3 137 -70 0 c-47 0 -71 -4 -74
-13z"/>
<path d="M1751 1253 c-90 -184 -301 -646 -301 -658 0 -12 14 -15 68 -15 37 0
72 4 78 8 6 4 21 28 32 55 l21 47 143 0 143 -1 25 -52 25 -52 73 -3 c65 -3 72
-1 72 16 0 10 -71 172 -159 358 -176 376 -179 381 -220 297z m59 -290 c7 -16
23 -52 36 -80 l24 -53 -79 0 -80 0 36 80 c20 44 39 80 43 80 4 0 13 -12 20
-27z"/>
<path d="M2225 1288 c-3 -7 -4 -168 -3 -358 l3 -345 75 0 75 0 3 126 3 126 82
5 c45 3 98 12 118 21 87 36 149 147 134 243 -9 64 -60 133 -120 164 -46 23
-61 25 -207 28 -125 3 -159 1 -163 -10z m309 -159 c35 -28 36 -80 1 -114 -21
-22 -33 -25 -90 -25 l-65 0 0 80 0 80 64 0 c49 0 69 -5 90 -21z"/>
<path d="M2830 940 l0 -361 73 3 72 3 3 126 3 126 90 5 c76 5 97 10 137 35 63
39 102 104 109 180 4 50 1 66 -24 113 -31 61 -86 106 -149 120 -21 5 -101 10
-176 10 l-138 0 0 -360z m306 187 c20 -17 27 -33 27 -57 0 -54 -39 -80 -119
-80 l-64 0 0 80 0 80 64 0 c54 0 70 -4 92 -23z"/>
<path d="M3434 1287 c-2 -7 -3 -168 -2 -358 l3 -344 225 0 225 0 3 73 3 72
-151 0 -150 0 0 70 0 70 125 0 125 0 0 75 0 75 -125 0 -125 0 0 65 0 65 150 0
150 0 0 75 0 75 -225 0 c-177 0 -227 -3 -231 -13z"/>
<path d="M4040 940 l0 -360 208 2 207 3 0 70 0 70 -132 3 -133 3 0 284 0 285
-75 0 -75 0 0 -360z"/>
<path d="M4562 943 l3 -358 205 0 205 0 0 70 0 70 -132 3 -133 3 0 284 0 285
-75 0 -75 0 2 -357z"/>
<path d="M1390 181 l0 -161 70 0 c74 0 123 17 134 45 12 33 5 66 -18 88 -24
22 -24 23 -5 46 27 33 25 82 -6 111 -20 19 -39 24 -100 28 l-75 5 0 -162z
m114 103 c26 -10 38 -41 26 -64 -8 -15 -21 -20 -50 -20 l-40 0 0 45 c0 41 2
45 24 45 13 0 32 -3 40 -6z m30 -156 c18 -29 -4 -53 -53 -56 l-41 -3 0 41 0
41 41 -3 c27 -2 46 -9 53 -20z"/>
<path d="M1700 219 c0 -136 11 -168 66 -194 43 -20 83 -19 121 5 54 32 64 65
61 193 l-3 112 -25 0 -25 0 -3 -114 c-2 -69 -7 -120 -14 -129 -33 -40 -96 -32
-117 15 -6 13 -11 71 -11 128 l0 105 -25 0 -25 0 0 -121z"/>
<path d="M2067 334 c-4 -4 -7 -76 -7 -161 l0 -153 30 0 31 0 -3 158 c-3 149
-4 157 -23 160 -12 2 -24 0 -28 -4z"/>
<path d="M2240 181 l0 -161 90 0 c89 0 90 0 90 25 0 24 -2 25 -65 25 l-64 0
-3 133 c-3 128 -4 132 -25 135 l-23 3 0 -160z"/>
<path d="M2507 333 c-4 -3 -7 -75 -7 -160 l0 -153 75 0 c117 0 172 34 195 119
20 77 -34 167 -115 190 -44 12 -138 15 -148 4z m179 -84 c23 -24 29 -39 29
-75 0 -39 -5 -50 -33 -75 -25 -23 -42 -29 -77 -29 l-45 0 0 105 0 105 48 0
c41 0 53 -5 78 -31z"/>
<path d="M3070 318 c-100 -68 -109 -202 -18 -271 58 -45 162 -45 199 -1 19 23
-11 50 -40 35 -54 -29 -132 -6 -151 45 -20 52 -12 94 24 130 39 39 85 45 125
18 21 -15 24 -15 43 3 19 20 19 20 -9 38 -16 11 -52 21 -83 23 -45 3 -61 0
-90 -20z"/>
<path d="M3424 326 c-17 -8 -43 -30 -58 -49 -62 -80 -35 -200 54 -244 54 -28
92 -29 146 -4 107 49 122 205 27 278 -42 32 -121 41 -169 19z m116 -51 c40
-21 60 -53 60 -98 0 -79 -73 -133 -143 -104 -46 20 -67 52 -67 103 0 85 78
136 150 99z"/>
<path d="M936 184 c-3 -9 -4 -20 0 -25 3 -5 54 -9 115 -9 l109 0 0 25 0 25
-109 0 c-90 0 -110 -3 -115 -16z"/>
<path d="M3932 178 c3 -22 7 -23 116 -26 l112 -3 0 26 0 25 -116 0 c-114 0
-115 0 -112 -22z"/>
<path d="M3721 62 c-15 -28 8 -57 38 -47 17 5 21 13 19 33 -4 34 -42 43 -57
14z"/>
</g>
</svg>
